<svg width="141" height="48" viewBox="0 0 141 48" fill="none" xmlns="http://www.w3.org/2000/svg">
<g id="logo_and_name 1">
<g id="layer1">
<g id="Astravue_text">
<path id="path2975" d="M46.447 31.0079C46.2826 30.5425 46.1777 29.8534 46.132 28.9408C45.5569 29.6891 44.8221 30.2687 43.9275 30.6794C43.0421 31.0809 42.1019 31.2817 41.1069 31.2817C39.6828 31.2817 38.5281 30.8847 37.6426 30.0907C36.7663 29.2967 36.3281 28.2928 36.3281 27.079C36.3281 25.637 36.926 24.4962 38.1219 23.6565C39.3268 22.8169 41.0019 22.3971 43.1471 22.3971H46.1184V20.7133C46.1184 19.6546 45.7897 18.8241 45.1325 18.2217C44.4844 17.6102 43.535 17.3045 42.2844 17.3045C41.1433 17.3045 40.1986 17.5966 39.4501 18.1807C38.7015 18.7647 38.3272 19.4675 38.3272 20.2889L36.6841 20.2752C36.6841 19.0979 37.2318 18.0803 38.3272 17.2224C39.4226 16.3554 40.7691 15.9219 42.3666 15.9219C44.0188 15.9219 45.3196 16.3371 46.269 17.1676C47.2274 17.989 47.7204 19.139 47.7478 20.6174V27.6266C47.7478 29.0595 47.8984 30.1318 48.1996 30.8437V31.0079L46.447 31.0079ZM41.2986 29.8306C42.394 29.8306 43.3707 29.5659 44.2288 29.0366C45.0959 28.5073 45.7258 27.8 46.1184 26.9147V23.6565H43.1881C41.5541 23.6748 40.2762 23.9759 39.3542 24.5601C38.4322 25.135 37.9713 25.929 37.9713 26.9421C37.9713 27.7726 38.2771 28.4616 38.8887 29.0092C39.5094 29.5568 40.3127 29.8306 41.2986 29.8306Z" fill="black"/>
<path id="path2977" d="M61.0009 27.2433C61.0009 26.431 60.6723 25.7785 60.015 25.2857C59.3669 24.7928 58.3857 24.4095 57.0712 24.1357C55.7567 23.8528 54.7343 23.5334 54.004 23.1774C53.2829 22.8124 52.7443 22.3697 52.3883 21.8495C52.0414 21.3293 51.868 20.6996 51.868 19.9603C51.868 18.7922 52.3563 17.8293 53.3331 17.0718C54.3098 16.3052 55.5604 15.9219 57.0848 15.9219C58.7371 15.9219 60.0607 16.3326 61.0557 17.154C62.0598 17.9662 62.5618 19.0294 62.5618 20.3437H60.9188C60.9188 19.4766 60.5536 18.7556 59.8233 18.1807C59.1022 17.6057 58.1894 17.3182 57.0848 17.3182C56.0077 17.3182 55.1405 17.5601 54.4833 18.0438C53.8351 18.5184 53.5111 19.139 53.5111 19.9056C53.5111 20.6448 53.7804 21.2198 54.3189 21.6305C54.8666 22.0321 55.8571 22.4017 57.2902 22.7394C58.7325 23.077 59.8096 23.4375 60.5217 23.8208C61.2428 24.2042 61.7768 24.665 62.1237 25.2035C62.4706 25.742 62.644 26.3945 62.644 27.1611C62.644 28.4115 62.1374 29.4108 61.1241 30.1592C60.12 30.9075 58.8055 31.2817 57.1807 31.2817C55.4554 31.2817 54.0542 30.8665 52.977 30.036C51.909 29.1963 51.375 28.1377 51.375 26.86H53.0181C53.082 27.8183 53.4837 28.5666 54.2231 29.1051C54.9716 29.6344 55.9575 29.8991 57.1807 29.8991C58.3217 29.8991 59.2437 29.6481 59.9466 29.1462C60.6495 28.6442 61.0009 28.0099 61.0009 27.2433Z" fill="black"/>
<path id="path2979" d="M68.868 12.4062V16.1983H71.9351V17.5399H68.868V27.4102C68.868 28.2316 69.014 28.843 69.3061 29.2446C69.6073 29.6462 70.1048 29.8469 70.7986 29.8469C71.0724 29.8469 71.5152 29.8013 72.1268 29.71L72.1952 31.0516C71.7662 31.2068 71.182 31.2844 70.4426 31.2844C69.3198 31.2844 68.5028 30.9604 67.9916 30.3124C67.4804 29.6553 67.2248 28.6924 67.2248 27.4239V17.5399H64.5V16.1983H67.2248V12.4062H68.868Z" fill="black"/>
<path id="path2981" d="M82.1744 17.592C81.8276 17.5281 81.4579 17.4962 81.0653 17.4962C80.043 17.4962 79.1758 17.7837 78.4637 18.3586C77.7609 18.9245 77.2588 19.7504 76.9576 20.8365V31.0079H75.3281V16.1957H76.9302L76.9576 18.5503C77.8248 16.798 79.2169 15.9219 81.1338 15.9219C81.5903 15.9219 81.9508 15.9812 82.2155 16.0998L82.1744 17.592Z" fill="black"/>
<path id="path2983" d="M93.5719 31.0079C93.4076 30.5425 93.3026 29.8534 93.257 28.9408C92.6819 29.6891 91.9471 30.2687 91.0525 30.6794C90.1671 31.0809 89.2268 31.2817 88.2318 31.2817C86.8078 31.2817 85.6531 30.8847 84.7676 30.0907C83.8913 29.2967 83.4531 28.2928 83.4531 27.079C83.4531 25.637 84.051 24.4962 85.2469 23.6565C86.4518 22.8169 88.1268 22.3971 90.272 22.3971H93.2433V20.7133C93.2433 19.6546 92.9147 18.8241 92.2574 18.2217C91.6093 17.6102 90.66 17.3045 89.4094 17.3045C88.2683 17.3045 87.3235 17.5966 86.575 18.1807C85.8265 18.7647 85.4522 19.4675 85.4522 20.2889L83.8091 20.2752C83.8091 19.0979 84.3568 18.0803 85.4522 17.2224C86.5476 16.3554 87.8941 15.9219 89.4915 15.9219C91.1438 15.9219 92.4446 16.3371 93.394 17.1676C94.3524 17.989 94.8453 19.139 94.8727 20.6174V27.6266C94.8727 29.0595 95.0234 30.1318 95.3246 30.8437V31.0079L93.5719 31.0079ZM88.4235 29.8306C89.5189 29.8306 90.4956 29.5659 91.3537 29.0366C92.2209 28.5073 92.8508 27.8 93.2433 26.9147V23.6565H90.3131C88.6791 23.6748 87.4012 23.9759 86.4792 24.5601C85.5572 25.135 85.0962 25.929 85.0962 26.9421C85.0962 27.7726 85.402 28.4616 86.0136 29.0092C86.6343 29.5568 87.4376 29.8306 88.4235 29.8306Z" fill="black"/>
<path id="path2985" d="M103.636 28.7488L108.141 16.1953H109.825L104.294 31.0076H102.965L97.4062 16.1953H99.0904L103.636 28.7488Z" fill="black"/>
<path id="path2987" d="M122.054 29.1321C121.068 30.565 119.493 31.2814 117.33 31.2814C115.75 31.2814 114.55 30.825 113.728 29.9124C112.907 28.9906 112.487 27.6308 112.469 25.8329V16.1953H114.098V25.6275C114.098 28.4476 115.239 29.8577 117.521 29.8577C119.895 29.8577 121.396 28.8765 122.026 26.9144V16.1953H123.669V31.0076H122.081L122.054 29.1321Z" fill="black"/>
<path id="path2989" d="M133.664 31.2817C132.405 31.2817 131.264 30.9714 130.241 30.3508C129.228 29.7302 128.438 28.8678 127.872 27.7635C127.306 26.6501 127.023 25.4043 127.023 24.0262V23.4375C127.023 22.0138 127.297 20.7315 127.845 19.5907C128.402 18.4499 129.173 17.5555 130.159 16.9075C131.145 16.2504 132.213 15.9219 133.363 15.9219C135.161 15.9219 136.585 16.5379 137.635 17.77C138.694 18.9929 139.224 20.6676 139.224 22.7941V23.7113H128.653V24.0262C128.653 25.7055 129.132 27.1064 130.091 28.2289C131.058 29.3424 132.272 29.8991 133.733 29.8991C134.609 29.8991 135.38 29.7394 136.047 29.42C136.722 29.1005 137.334 28.5894 137.882 27.8867L138.909 28.667C137.704 30.4102 135.956 31.2817 133.664 31.2817ZM133.363 17.3182C132.131 17.3182 131.09 17.77 130.241 18.6735C129.401 19.577 128.89 20.7908 128.708 22.315H137.594V22.137C137.548 20.7133 137.142 19.5542 136.375 18.6598C135.609 17.7654 134.605 17.3182 133.363 17.3182Z" fill="black"/>
</g>
<path id="Upper_Triangle" d="M14.0169 8.58594C14.0113 8.58594 7.84023 19.3787 7.83738 19.3837C7.83501 19.3885 3.37359 27.1778 2.32031 29.0236C3.40121 28.3165 5.07088 27.7212 7.14106 27.3049C9.21125 26.8885 11.5996 26.6676 14.0369 26.6671C16.4858 26.6671 18.8855 26.8896 20.9629 27.3092C23.0404 27.7289 24.7123 28.3289 25.7883 29.0409C24.7653 27.2577 20.2247 19.373 20.2221 19.3685C20.219 19.3637 14.0226 8.58594 14.0169 8.58594Z" fill="#DD2C46"/>
<path id="Lower_Triangle" d="M9.53635 29.0544C9.53742 29.0526 14.0473 29.0491 14.0494 29.0491C14.0515 29.0491 18.5615 29.0421 18.5625 29.0439C18.5636 29.0456 16.3117 32.8522 16.3106 32.854C16.3096 32.8557 14.0609 36.6641 14.0588 36.6641C14.0567 36.6641 11.7986 32.861 11.7976 32.8592C11.7965 32.8575 9.5353 29.0561 9.53635 29.0544V29.0544Z" fill="#EBB14F"/>
</g>
</g>
</svg>
