<svg width="32" height="32" viewBox="0 0 32 32" fill="none" xmlns="http://www.w3.org/2000/svg">
<g id="Layer_1" clip-path="url(#clip0_700_10956)">
<path id="Vector" d="M7.33252 14.6667C9.90585 14.6667 11.9992 12.5733 11.9992 10C11.9992 7.42667 9.90585 5.33333 7.33252 5.33333C4.75919 5.33333 2.66585 7.42667 2.66585 10C2.66585 12.5733 4.75919 14.6667 7.33252 14.6667ZM7.33252 8C8.43519 8 9.33252 8.89733 9.33252 10C9.33252 11.1027 8.43519 12 7.33252 12C6.22985 12 5.33252 11.1027 5.33252 10C5.33252 8.89733 6.22985 8 7.33252 8ZM11.7739 19.0853C11.3619 19.6973 10.5352 19.8613 9.92319 19.4507C9.15652 18.936 8.26052 18.6653 7.33252 18.6653C4.94985 18.6653 2.95652 20.448 2.69385 22.812C2.61785 23.4933 2.04052 23.9987 1.36985 23.9987C1.32185 23.9987 1.27252 23.996 1.22185 23.9907C0.489854 23.9093 -0.0368127 23.2493 0.0431873 22.5187C0.455187 18.8027 3.58852 15.9987 7.33252 15.9987C8.79119 15.9987 10.1992 16.4253 11.4085 17.2347C12.0205 17.6453 12.1845 18.4733 11.7739 19.0853ZM20.6659 9.33333C23.2392 9.33333 25.3325 7.24 25.3325 4.66667C25.3325 2.09333 23.2392 0 20.6659 0C18.0925 0 15.9992 2.09333 15.9992 4.66667C15.9992 7.24 18.0925 9.33333 20.6659 9.33333ZM20.6659 2.66667C21.7685 2.66667 22.6659 3.564 22.6659 4.66667C22.6659 5.76933 21.7685 6.66667 20.6659 6.66667C19.5632 6.66667 18.6659 5.76933 18.6659 4.66667C18.6659 3.564 19.5632 2.66667 20.6659 2.66667ZM22.6659 13.3333C17.5205 13.3333 13.3325 17.5213 13.3325 22.6667C13.3325 27.812 17.5205 32 22.6659 32C27.8112 32 31.9992 27.812 31.9992 22.6667C31.9992 17.5213 27.8112 13.3333 22.6659 13.3333ZM22.6659 29.3333C18.9899 29.3333 15.9992 26.3427 15.9992 22.6667C15.9992 18.9907 18.9899 16 22.6659 16C26.3419 16 29.3325 18.9907 29.3325 22.6667C29.3325 26.3427 26.3419 29.3333 22.6659 29.3333ZM26.9619 21.0507C27.4712 21.5813 27.4539 22.4253 26.9232 22.936L23.9725 25.768C23.3699 26.3627 22.5699 26.6627 21.7685 26.6627C20.9672 26.6627 20.1645 26.3627 19.5512 25.764L18.0419 24.2853C17.5152 23.7693 17.5085 22.9253 18.0232 22.4C18.5379 21.8733 19.3819 21.8653 19.9085 22.3813L21.4165 23.8587C21.6085 24.048 21.9219 24.044 22.1125 23.856L25.0765 21.0107C25.6059 20.5027 26.4512 20.5173 26.9619 21.0493V21.0507Z" fill="#00FFFF"/>
</g>
<defs>
<clipPath id="clip0_700_10956">
<rect width="32" height="32" fill="white"/>
</clipPath>
</defs>
</svg>
