<svg width="32" height="32" viewBox="0 0 32 32" fill="none" xmlns="http://www.w3.org/2000/svg">
<g id="Layer_1" clip-path="url(#clip0_700_10915)">
<path id="Vector" d="M12.6667 3.33333C12.6667 1.492 14.1587 0 16 0C17.8413 0 19.3333 1.492 19.3333 3.33333C19.3333 5.17467 17.8413 6.66667 16 6.66667C14.1587 6.66667 12.6667 5.17467 12.6667 3.33333ZM28 4C25.7947 4 24 5.79467 24 8V14.912C23.6453 14.7867 23.2773 14.6933 22.8907 14.672C21.8333 14.616 20.8013 14.9733 19.9933 15.6973L15.9813 19.3893C15.8707 19.2773 15.768 19.16 15.652 19.052L11.9933 15.6853C11.1973 14.9733 10.1613 14.6173 9.10933 14.672C8.72267 14.6933 8.35467 14.7867 8 14.912V8C8 5.79467 6.20533 4 4 4C1.79467 4 0 5.79467 0 8V21.468C0 24.3173 1.10933 26.996 3.124 29.0107L5.724 31.6107C5.984 31.8707 6.32533 32.0013 6.66667 32.0013C7.008 32.0013 7.34933 31.8707 7.60933 31.6107C8.13067 31.0893 8.13067 30.2453 7.60933 29.7253L5.00933 27.1253C3.49867 25.6147 2.66667 23.6053 2.66667 21.468V8C2.66667 7.26533 3.264 6.66667 4 6.66667C4.736 6.66667 5.33333 7.26533 5.33333 8C5.33333 8 5.32667 18.768 5.33333 18.8213C5.37333 19.6947 5.71333 20.5667 6.328 21.2973L9.816 24.9253C10.3253 25.456 11.1693 25.4733 11.7013 24.9613C12.2307 24.4507 12.248 23.6067 11.7373 23.076L8.30933 19.516C7.888 19.0133 7.9 18.2653 8.33867 17.776C8.57467 17.512 8.9 17.356 9.25467 17.336C9.60533 17.312 9.94933 17.436 10.2013 17.6613L13.8453 21.016C15.2133 22.2747 15.9987 24.064 15.9987 25.9227V30.668C15.9987 31.404 16.5947 32.0013 17.332 32.0013C18.0693 32.0013 18.6653 31.404 18.6653 30.668V25.9227C18.6653 24.3867 18.2733 22.8893 17.5667 21.5547L21.784 17.6733C22.048 17.436 22.3907 17.312 22.744 17.336C23.0987 17.356 23.424 17.512 23.66 17.776C23.8733 18.0133 24.248 18.9493 23.7493 19.448L20.372 22.96C19.8613 23.4907 19.8787 24.3347 20.408 24.8453C20.6667 25.0947 20.9987 25.2173 21.332 25.2173C21.6827 25.2173 22.0307 25.08 22.2933 24.808L25.7307 21.228C26.3307 20.5133 26.6453 19.6347 26.6653 18.752C26.668 18.7213 26.6653 7.99867 26.6653 7.99867C26.6653 7.264 27.2627 6.66533 27.9987 6.66533C28.7347 6.66533 29.332 7.264 29.332 7.99867V21.4667C29.332 23.604 28.5 25.612 26.9893 27.124L24.3893 29.724C23.868 30.244 23.868 31.088 24.3893 31.6093C24.6493 31.8693 24.9907 32 25.332 32C25.6733 32 26.0147 31.8693 26.2747 31.6093L28.8747 29.0093C30.8893 26.9947 31.9987 24.316 31.9987 21.4667V8C31.9987 5.79467 30.2053 4 28 4ZM13.772 13.6987L14.924 14.7587C15.532 15.3187 16.468 15.3187 17.076 14.7587L18.188 13.736C19.08 12.9373 20.1653 12.42 21.3053 12.176C21.312 12.1653 21.316 12.16 21.3227 12.1493C20.772 9.77333 18.5987 8 16.0013 8C13.404 8 11.232 9.772 10.68 12.1467C10.6867 12.1573 10.6893 12.1627 10.696 12.172C11.804 12.4027 12.8707 12.8907 13.7733 13.6973L13.772 13.6987Z" fill="#FFA800"/>
</g>
<defs>
<clipPath id="clip0_700_10915">
<rect width="32" height="32" fill="white"/>
</clipPath>
</defs>
</svg>
