<svg width="32" height="32" viewBox="0 0 32 32" fill="none" xmlns="http://www.w3.org/2000/svg">
<g id="Layer_1" clip-path="url(#clip0_700_10933)">
<path id="Vector" d="M14.6133 21.3587C14.36 22.4333 13.2813 23.0973 12.2067 22.8453C11.7067 22.7267 11.188 22.6667 10.6667 22.6667C6.99067 22.6667 4 25.6573 4 29.3333V30C4 31.1053 3.104 32 2 32C0.896 32 0 31.1053 0 30V29.3333C0 23.452 4.78533 18.6667 10.6667 18.6667C11.4973 18.6667 12.3253 18.7627 13.1267 18.952C14.2027 19.2067 14.868 20.284 14.6133 21.3587ZM18.6667 8C18.6667 12.412 15.0787 16 10.6667 16C6.25467 16 2.66667 12.412 2.66667 8C2.66667 3.588 6.25467 0 10.6667 0C15.0787 0 18.6667 3.588 18.6667 8ZM14.6667 8C14.6667 5.79467 12.872 4 10.6667 4C8.46133 4 6.66667 5.79467 6.66667 8C6.66667 10.2053 8.46133 12 10.6667 12C12.872 12 14.6667 10.2053 14.6667 8ZM32 19.48V23.508C32 28.796 27.0853 31.2093 25.416 31.856C25.1747 31.952 24.9213 32 24.668 32C24.3613 32 24.0547 31.9293 23.7733 31.7893C22.168 31.0733 17.3333 28.204 17.3333 23.508V19.48C17.3333 17.592 18.5373 15.9253 20.3293 15.332L24.036 14.1027C24.4453 13.9667 24.888 13.9667 25.296 14.1027L29.004 15.332C30.7947 15.9267 32 17.5933 32 19.48ZM28 19.48C28 19.32 27.8973 19.1787 27.7467 19.128L24.6667 18.1067L21.588 19.128C21.436 19.1787 21.3333 19.32 21.3333 19.48V23.508C21.3333 25.536 23.5827 27.1053 24.752 27.784C25.9493 27.1893 28 25.8333 28 23.508V19.48Z" fill="#0094FF"/>
</g>
<defs>
<clipPath id="clip0_700_10933">
<rect width="32" height="32" fill="white"/>
</clipPath>
</defs>
</svg>
