<svg width="205" height="220" viewBox="0 0 205 220" fill="none" xmlns="http://www.w3.org/2000/svg">
<g clip-path="url(#clip0_700_10968)">
<path fill-rule="evenodd" clip-rule="evenodd" d="M41.57 149.866C45.3544 134.553 57.3422 119.978 72.9121 108.259C96.1776 90.7506 127.417 79.6088 150.873 81.7438C151.356 81.7937 151.712 82.2236 151.668 82.7005C151.624 83.1893 151.201 83.5403 150.712 83.4962C127.619 81.3972 96.8776 92.4221 73.9705 109.669C58.7515 121.12 46.9748 135.319 43.2822 150.289C43.1666 150.764 42.6902 151.049 42.2146 150.933C41.7509 150.818 41.4545 150.341 41.57 149.866Z" fill="white"/>
<path fill-rule="evenodd" clip-rule="evenodd" d="M178.306 76.3004C164.655 75.7585 152.616 76.6648 139.337 70.7621C138.893 70.5576 138.687 70.0407 138.891 69.5964C139.084 69.1519 139.607 68.9518 140.045 69.1503C154.657 75.6428 167.753 73.7156 183.215 74.7957C184.049 74.8576 184.164 75.4744 184.18 75.6239C184.206 75.8453 184.176 76.2029 183.777 76.4708C183.699 76.5232 183.53 76.6039 183.278 76.6832C182.792 76.8242 181.78 77.028 181.336 77.1637C180.057 77.5659 178.796 77.9983 177.518 78.4005C173.863 79.5504 170.231 80.7365 166.69 82.1869C153.434 87.5919 142.561 91.927 136.493 105.448C136.294 105.898 135.777 106.092 135.327 105.894C134.888 105.695 134.688 105.172 134.887 104.734C141.16 90.745 152.318 86.1463 166.025 80.5519C169.614 79.0904 173.294 77.8812 176.985 76.7199C177.429 76.5841 177.867 76.4422 178.306 76.3004Z" fill="white"/>
</g>
<defs>
<clipPath id="clip0_700_10968">
<rect width="154.873" height="154.873" fill="white" transform="matrix(0.695018 0.718993 0.718993 -0.695018 0.355469 107.82)"/>
</clipPath>
</defs>
</svg>
