<svg width="24" height="24" viewBox="0 0 24 24" fill="none" xmlns="http://www.w3.org/2000/svg">
<g id="linkedin-app-icon (2) 1" clip-path="url(#clip0_209_6480)">
<path id="Vector" fill-rule="evenodd" clip-rule="evenodd" d="M5.41992 0H18.5801C20.0163 0.00414176 21.3924 0.579159 22.408 1.59943C23.4235 2.6197 23.9959 4.0023 24 5.44518V18.5568C23.9954 19.9993 23.4228 21.3814 22.4073 22.4013C21.3918 23.4211 20.0159 23.9959 18.5801 24H5.41992C3.98407 23.9959 2.60818 23.4211 1.5927 22.4013C0.577215 21.3814 0.00463752 19.9993 0 18.5568V5.44518C0.00412255 4.0023 0.576472 2.6197 1.59201 1.59943C2.60755 0.579159 3.98374 0.00414176 5.41992 0Z" fill="#0A66C2"/>
<path id="Vector_2" fill-rule="evenodd" clip-rule="evenodd" d="M9.60742 9.30289H12.6406V10.8727H12.6836C13.1074 10.1113 14.1387 9.30289 15.6797 9.30289C18.8809 9.30289 19.4727 11.3044 19.4727 13.9082V19.4142H16.3105V14.5204C16.3105 13.4 16.2871 11.9578 14.666 11.9578C13.0449 11.9578 12.7676 13.1763 12.7676 14.44V19.4241H9.60742V9.30289ZM7.8125 6.23789C7.8125 6.56466 7.71605 6.8841 7.53535 7.1558C7.35464 7.4275 7.0978 7.63927 6.7973 7.76432C6.49681 7.88937 6.16615 7.92209 5.84714 7.85834C5.52813 7.79459 5.2351 7.63723 5.00511 7.40617C4.77512 7.1751 4.61849 6.88071 4.55504 6.56022C4.49158 6.23972 4.52415 5.90752 4.64862 5.60562C4.77309 5.30372 4.98387 5.04568 5.25432 4.86414C5.52476 4.68259 5.84271 4.58569 6.16797 4.58569C6.60397 4.58621 7.02196 4.76045 7.33026 5.07018C7.63856 5.37992 7.81198 5.79986 7.8125 6.23789ZM4.52734 9.30289H7.8125V19.4142H4.52734V9.30289Z" fill="white"/>
</g>
<defs>
<clipPath id="clip0_209_6480">
<rect width="24" height="24" fill="white"/>
</clipPath>
</defs>
</svg>
