<svg width="32" height="32" viewBox="0 0 32 32" fill="none" xmlns="http://www.w3.org/2000/svg">
<g id="Outline" clip-path="url(#clip0_700_10942)">
<path id="Vector" d="M12 16C13.5823 16 15.129 15.5308 16.4446 14.6518C17.7602 13.7727 18.7855 12.5233 19.391 11.0615C19.9965 9.59966 20.155 7.99113 19.8463 6.43928C19.5376 4.88743 18.7757 3.46197 17.6569 2.34315C16.538 1.22433 15.1126 0.462403 13.5607 0.153721C12.0089 -0.15496 10.4003 0.00346629 8.93853 0.608967C7.47672 1.21447 6.22729 2.23985 5.34824 3.55544C4.46919 4.87104 4 6.41775 4 8C4.00212 10.1211 4.84565 12.1547 6.34549 13.6545C7.84532 15.1544 9.87892 15.9979 12 16ZM12 2.66667C13.0548 2.66667 14.086 2.97947 14.963 3.5655C15.8401 4.15153 16.5237 4.98449 16.9274 5.95903C17.331 6.93357 17.4366 8.00592 17.2309 9.04049C17.0251 10.0751 16.5171 11.0254 15.7712 11.7712C15.0254 12.5171 14.075 13.0251 13.0405 13.2309C12.0059 13.4366 10.9336 13.331 9.95902 12.9274C8.98448 12.5237 8.15153 11.8401 7.5655 10.963C6.97946 10.086 6.66667 9.05484 6.66667 8C6.66667 6.58552 7.22857 5.22896 8.22876 4.22877C9.22896 3.22857 10.5855 2.66667 12 2.66667Z" fill="#61FF00"/>
<path id="Vector_2" d="M12 18.667C8.81859 18.6709 5.7686 19.9364 3.51901 22.186C1.26941 24.4356 0.00388127 27.4856 0 30.667C0 31.0206 0.140476 31.3598 0.390524 31.6098C0.640573 31.8599 0.979711 32.0003 1.33333 32.0003C1.68696 32.0003 2.02609 31.8599 2.27614 31.6098C2.52619 31.3598 2.66667 31.0206 2.66667 30.667C2.66667 28.1916 3.65 25.8177 5.40034 24.0673C7.15068 22.317 9.52465 21.3337 12 21.3337C14.4754 21.3337 16.8493 22.317 18.5997 24.0673C20.35 25.8177 21.3333 28.1916 21.3333 30.667C21.3333 31.0206 21.4738 31.3598 21.7239 31.6098C21.9739 31.8599 22.313 32.0003 22.6667 32.0003C23.0203 32.0003 23.3594 31.8599 23.6095 31.6098C23.8595 31.3598 24 31.0206 24 30.667C23.9961 27.4856 22.7306 24.4356 20.481 22.186C18.2314 19.9364 15.1814 18.6709 12 18.667Z" fill="#61FF00"/>
<path id="Vector_3" d="M29.333 10.5C28.5909 10.537 27.8938 10.8664 27.394 11.4161C26.8942 11.9658 26.6326 12.6911 26.6663 13.4333C26.7 12.6911 26.4384 11.9658 25.9386 11.4161C25.4388 10.8664 24.7417 10.537 23.9996 10.5C23.2576 10.537 22.5604 10.8664 22.0607 11.4161C21.5609 11.9658 21.2993 12.6911 21.333 13.4333C21.333 15.74 24.341 18.4427 25.8396 19.6453C26.0742 19.8332 26.3658 19.9355 26.6663 19.9355C26.9668 19.9355 27.2584 19.8332 27.493 19.6453C28.9916 18.4453 31.9996 15.74 31.9996 13.4333C32.0334 12.6911 31.7717 11.9658 31.2719 11.4161C30.7722 10.8664 30.075 10.537 29.333 10.5Z" fill="#61FF00"/>
</g>
<defs>
<clipPath id="clip0_700_10942">
<rect width="32" height="32" fill="white"/>
</clipPath>
</defs>
</svg>
