<svg width="26" height="25" viewBox="0 0 26 25" fill="none" xmlns="http://www.w3.org/2000/svg">
<g id="Highlight_03">
<g id="Group">
<path id="Vector" fill-rule="evenodd" clip-rule="evenodd" d="M3.59578 11.5004C4.72256 8.85727 5.11111 6.19821 5.64823 3.41833C5.75305 2.87542 5.39858 2.35196 4.85742 2.24676C4.31594 2.14149 3.79152 2.49784 3.68637 3.0407C3.17712 5.6767 2.8278 8.20721 1.75805 10.718C1.54156 11.2258 1.7778 11.8143 2.28528 12.0287C2.79189 12.2463 3.37962 12.0083 3.59578 11.5004Z" fill="#F25454"/>
<path id="Vector_2" fill-rule="evenodd" clip-rule="evenodd" d="M8.47681 17.7768C13.7569 14.3273 18.9678 9.63174 22.8841 4.67085C23.2257 4.23745 23.152 3.60802 22.7191 3.26746C22.2862 2.9269 21.6576 2.99974 21.316 3.43314C17.5291 8.2296 12.4895 12.771 7.38426 16.104C6.92263 16.4065 6.79277 17.0263 7.09438 17.4871C7.39599 17.9479 8.01518 18.0793 8.47681 17.7768Z" fill="#F25454"/>
<path id="Vector_3" fill-rule="evenodd" clip-rule="evenodd" d="M8.89239 22.554C12.9814 23.9333 17.5058 23.4574 21.5999 22.4086C22.1343 22.2698 22.4567 21.7253 22.3198 21.1935C22.1831 20.6584 21.6382 20.3367 21.1043 20.4722C17.3755 21.4288 13.2553 21.9167 9.531 20.6611C9.00854 20.4847 8.44131 20.7665 8.26547 21.2877C8.08931 21.8089 8.37027 22.3776 8.89239 22.554Z" fill="#F25454"/>
</g>
</g>
</svg>
