<svg width="40" height="40" viewBox="0 0 40 40" fill="none" xmlns="http://www.w3.org/2000/svg">
<g id="linkedin-square-color-icon (1) 1" clip-path="url(#clip0_700_11029)">
<path id="Vector" fill-rule="evenodd" clip-rule="evenodd" d="M8.20313 0H31.7969C33.9706 0.00601319 36.0536 0.872199 37.5907 2.40928C39.1278 3.94636 39.994 6.02937 40 8.20313V31.7969C39.994 33.9706 39.1278 36.0536 37.5907 37.5907C36.0536 39.1278 33.9706 39.994 31.7969 40H8.20313C6.02937 39.994 3.94636 39.1278 2.40928 37.5907C0.872199 36.0536 0.00601319 33.9706 0 31.7969L0 8.20313C0.00601319 6.02937 0.872199 3.94636 2.40928 2.40928C3.94636 0.872199 6.02937 0.00601319 8.20313 0Z" fill="white"/>
<path id="Vector_2" fill-rule="evenodd" clip-rule="evenodd" d="M9.90625 16.3965H14.2324V29.3717H9.90625V16.3965Z" fill="#0077B5"/>
<path id="Vector_3" fill-rule="evenodd" clip-rule="evenodd" d="M14.2318 12.7884C14.2324 13.2168 14.1059 13.6358 13.8683 13.9923C13.6307 14.3488 13.2926 14.6267 12.897 14.791C12.5013 14.9552 12.0658 14.9984 11.6455 14.9149C11.2253 14.8315 10.8393 14.6253 10.5364 14.3224C10.2334 14.0194 10.0272 13.6334 9.94378 13.2132C9.86036 12.793 9.9035 12.3574 10.0677 11.9618C10.232 11.5661 10.51 11.228 10.8664 10.9904C11.2229 10.7528 11.6419 10.6263 12.0703 10.627C12.6436 10.627 13.1933 10.8547 13.5987 11.26C14.004 11.6654 14.2318 12.2152 14.2318 12.7884Z" fill="#0077B5"/>
<path id="Vector_4" fill-rule="evenodd" clip-rule="evenodd" d="M17.1152 16.3965H21.1061V18.4408H21.1582C21.7148 17.4447 23.0723 16.3965 25.1003 16.3965C29.3092 16.3965 30.0905 19.0169 30.0905 22.4251V29.3717H25.9336V23.2161C25.9336 21.748 25.9043 19.8568 23.7624 19.8568C21.6204 19.8568 21.2656 21.4551 21.2656 23.112V29.3717H17.1152V16.3965Z" fill="#0077B5"/>
</g>
<defs>
<clipPath id="clip0_700_11029">
<rect width="40" height="40" fill="white"/>
</clipPath>
</defs>
</svg>
