<svg width="32" height="32" viewBox="0 0 32 32" fill="none" xmlns="http://www.w3.org/2000/svg">
<g id="Outline" clip-path="url(#clip0_700_10905)">
<path id="Vector" d="M24.774 2.85365L16.4207 0.0683211C16.1472 -0.0227737 15.8515 -0.0227737 15.578 0.0683211L7.22469 2.85365C5.89656 3.29483 4.74124 4.14333 3.92288 5.2786C3.10451 6.41387 2.66473 7.77817 2.66602 9.17765V16.0003C2.66602 26.0843 14.9327 31.6537 15.458 31.8857C15.6284 31.9614 15.8129 32.0005 15.9994 32.0005C16.1858 32.0005 16.3703 31.9614 16.5407 31.8857C17.066 31.6537 29.3327 26.0843 29.3327 16.0003V9.17765C29.334 7.77817 28.8942 6.41387 28.0758 5.2786C27.2575 4.14333 26.1021 3.29483 24.774 2.85365ZM26.666 16.0003C26.666 23.2737 18.2407 28.0443 15.9994 29.1857C13.7554 28.0483 5.33268 23.2923 5.33268 16.0003V9.17765C5.33276 8.33802 5.59705 7.51971 6.0881 6.83864C6.57916 6.15758 7.27208 5.64831 8.06868 5.38299L15.9994 2.73899L23.93 5.38299C24.7266 5.64831 25.4195 6.15758 25.9106 6.83864C26.4017 7.51971 26.6659 8.33802 26.666 9.17765V16.0003Z" fill="#00C3FF"/>
<path id="Vector_2" d="M20.3991 11.0668L14.8151 16.6668L11.8231 13.5468C11.703 13.4155 11.5579 13.3096 11.3962 13.2352C11.2346 13.1609 11.0597 13.1197 10.8819 13.114C10.704 13.1083 10.5269 13.1382 10.3608 13.2021C10.1947 13.2659 10.0431 13.3623 9.9149 13.4857C9.78667 13.609 9.68443 13.7567 9.61418 13.9202C9.54394 14.0837 9.50712 14.2595 9.50589 14.4374C9.50466 14.6154 9.53906 14.7917 9.60704 14.9561C9.67502 15.1205 9.77522 15.2697 9.90174 15.3948L12.9764 18.5948C13.2057 18.8424 13.4829 19.041 13.7911 19.1785C14.0993 19.316 14.4323 19.3896 14.7697 19.3948H14.8137C15.1445 19.3959 15.4721 19.3312 15.7777 19.2047C16.0833 19.0781 16.3607 18.8921 16.5937 18.6574L22.2897 12.9614C22.4141 12.8373 22.5129 12.6899 22.5803 12.5276C22.6477 12.3653 22.6825 12.1913 22.6827 12.0155C22.6829 11.8398 22.6485 11.6657 22.5814 11.5033C22.5143 11.3408 22.4159 11.1932 22.2917 11.0688C22.1676 10.9444 22.0202 10.8456 21.8579 10.7782C21.6956 10.7108 21.5216 10.676 21.3458 10.6758C21.1701 10.6756 20.996 10.71 20.8336 10.7771C20.6711 10.8442 20.5235 10.9426 20.3991 11.0668Z" fill="#00C3FF"/>
</g>
<defs>
<clipPath id="clip0_700_10905">
<rect width="32" height="32" fill="white"/>
</clipPath>
</defs>
</svg>
