<svg width="24" height="24" viewBox="0 0 24 24" fill="none" xmlns="http://www.w3.org/2000/svg">
<g id="x-social-media-logo-icon (4) 1" clip-path="url(#clip0_209_6487)">
<path id="Vector" d="M18.5808 0H5.41922C2.42627 0 0 2.4375 0 5.44431V18.5557C0 21.5625 2.42627 24 5.41922 24H18.5808C21.5737 24 24 21.5625 24 18.5557V5.44431C24 2.4375 21.5737 0 18.5808 0Z" fill="black"/>
<path id="Vector_2" d="M15.1753 6.98608H16.8684L13.1695 11.2338L17.5209 17.0134H14.1136L11.445 13.5083L8.3911 17.0134H6.69703L10.6533 12.4704L6.47906 6.98608H9.97266L12.3848 10.1902L15.1753 6.98608ZM14.5809 15.9953H15.5194L9.46313 7.951H8.45625L14.5809 15.9953Z" fill="white"/>
</g>
<defs>
<clipPath id="clip0_209_6487">
<rect width="24" height="24" fill="white"/>
</clipPath>
</defs>
</svg>
