<svg width="24" height="24" viewBox="0 0 24 24" fill="none" xmlns="http://www.w3.org/2000/svg">
<g id="youtube-color-icon (2) 1" clip-path="url(#clip0_209_6490)">
<path id="Vector" fill-rule="evenodd" clip-rule="evenodd" d="M23.7551 7.20169C23.7551 7.20169 23.5208 5.54742 22.7997 4.82101C21.8859 3.86564 20.8628 3.85952 20.3951 3.80408C17.0392 3.55957 11.9989 3.55957 11.9989 3.55957H11.9901C11.9901 3.55957 6.95204 3.55957 3.59432 3.80408C3.12473 3.86118 2.10305 3.86514 1.18973 4.82101C0.468144 5.54742 0.238824 7.20169 0.238824 7.20169C0.238824 7.20169 0 9.14296 0 11.0883V12.9074C0 14.8487 0.23868 16.7939 0.23868 16.7939C0.23868 16.7939 0.472968 18.4482 1.18959 19.1758C2.10291 20.1312 3.30322 20.1001 3.83904 20.2021C5.76037 20.3855 12.0005 20.4408 12.0005 20.4408C12.0005 20.4408 17.0452 20.4319 20.4011 20.1919C20.8707 20.1364 21.892 20.1308 22.8057 19.1749C23.5272 18.4485 23.7611 16.7925 23.7611 16.7925C23.7611 16.7925 24.0001 14.8512 24.0001 12.906V11.087C23.9952 9.14577 23.7564 7.20054 23.7564 7.20054L23.7551 7.20184L23.755 7.20169H23.7551ZM9.51294 15.1143V8.36925L15.9963 11.753L9.51294 15.1143Z" fill="#FF0000"/>
</g>
<defs>
<clipPath id="clip0_209_6490">
<rect width="24" height="24" fill="white"/>
</clipPath>
</defs>
</svg>
